<?xml version="1.0" encoding="UTF-8"?>
<svg width="81px" height="81px" viewBox="0 0 81 81" version="1.1" xmlns="http://www.w3.org/2000/svg" xmlns:xlink="http://www.w3.org/1999/xlink">
    <!-- Generator: Sketch 45 (43475) - http://www.bohemiancoding.com/sketch -->
    <title>Group 15</title>
    <desc>Created with Sketch.</desc>
    <defs>
        <path d="M20.7250712,2.78948964 C17.1291401,2.78948964 14.0891543,5.09946601 12.8905106,8.33583189 C11.986158,7.92159268 10.9944945,7.67109651 9.93755684,7.67109651 C5.96030251,7.67109651 2.7459736,10.9509784 2.7459736,14.9935068 C2.7459736,19.0360352 5.96030251,22.3159171 9.93755684,22.3159171 L31.5125855,22.3159171 C34.1603691,22.3159171 36.3068813,20.1256098 36.3068813,17.4343102 C36.3068813,14.7430106 34.1603691,12.5527034 31.5125855,12.5527034 L29.1152981,12.5527034 L29.1152981,11.3323017 C29.1152981,6.61415888 25.3559029,2.78948964 20.7250712,2.78948964 Z M20.7250712,0 C26.3475665,0 31.0004352,4.26038752 31.7522027,9.76321373 C35.794731,9.8940408 39.0528549,13.2827128 39.0528549,17.4343102 C39.0528549,21.6620607 35.6750619,25.1054067 31.5125855,25.1054067 L9.93755684,25.1054067 C4.4567676,25.1054067 0,20.5724861 0,14.9935068 C0,9.41452753 4.4567676,4.88160687 9.93755684,4.88160687 C10.4605861,4.88160687 10.9944945,4.92512291 11.5175238,5.01243393 C13.5552459,1.93953215 17.009471,0 20.7250712,0 Z" id="path-1"></path>
        <path d="M20.7250712,2.78948964 C17.1291401,2.78948964 14.0891543,5.09946601 12.8905106,8.33583189 C11.986158,7.92159268 10.9944945,7.67109651 9.93755684,7.67109651 C5.96030251,7.67109651 2.7459736,10.9509784 2.7459736,14.9935068 C2.7459736,19.0360352 5.96030251,22.3159171 9.93755684,22.3159171 L31.5125855,22.3159171 C34.1603691,22.3159171 36.3068813,20.1256098 36.3068813,17.4343102 C36.3068813,14.7430106 34.1603691,12.5527034 31.5125855,12.5527034 L29.1152981,12.5527034 L29.1152981,11.3323017 C29.1152981,6.61415888 25.3559029,2.78948964 20.7250712,2.78948964 Z M20.7250712,0 C26.3475665,0 31.0004352,4.26038752 31.7522027,9.76321373 C35.794731,9.8940408 39.0528549,13.2827128 39.0528549,17.4343102 C39.0528549,21.6620607 35.6750619,25.1054067 31.5125855,25.1054067 L9.93755684,25.1054067 C4.4567676,25.1054067 0,20.5724861 0,14.9935068 C0,9.41452753 4.4567676,4.88160687 9.93755684,4.88160687 C10.4605861,4.88160687 10.9944945,4.92512291 11.5175238,5.01243393 C13.5552459,1.93953215 17.009471,0 20.7250712,0 Z" id="path-3"></path>
    </defs>
    <g id="Page-1" stroke="none" stroke-width="1" fill="none" fill-rule="evenodd">
        <g id="Artboard-2" transform="translate(-643.000000, -161.000000)">
            <g id="Group-15" transform="translate(643.000000, 161.000000)">
                <circle id="Oval-3" fill="#FFFFFF" cx="40.0751953" cy="40.0751953" r="40.0751953"></circle>
                <g id="Group-14" transform="translate(15.000000, 14.000000)">
                    <g id="My">
                        <g id="Group-13">
                            <g id="Vector" transform="translate(0.000000, 5.555556)"></g>
                            <path d="M15.6862745,-7.10542736e-15 C7.02287582,-7.10542736e-15 0,2.5620915 0,5.71568627 C0,8.86928105 7.02287582,11.4379085 15.6862745,11.4379085 C24.3436936,11.4379085 31.3628536,8.87608912 31.372549,5.72222222 L31.372549,25.8685744 C26.7941156,26.1622485 23.8177154,27.6304095 21.7287734,30.7805512 C21.1432965,30.6828156 20.5456418,30.6341039 19.960165,30.6341039 C14.1234406,30.6341039 9.90436178,35.5166619 9.50769557,41.3690072 C3.91637747,40.4938899 0,38.4668951 0,36.1045752 L0,5.7124183 L6.4746732,1.78206699 L15.6862745,0.739123775 C19.9658744,0.895259412 22.9542833,1.24290715 24.6515012,1.78206699 C26.4401199,2.35026236 28.6804658,3.66364744 31.372539,5.72222222 C31.372549,2.55882353 24.3496732,-7.10542736e-15 15.6862745,-7.10542736e-15 Z" id="Combined-Shape" fill="#0076DF" fill-rule="nonzero"></path>
                            <path d="M31.372549,6.28278952 C31.372549,9.75287224 24.3496732,12.5727635 15.6862745,12.5727635 C7.02287582,12.5727635 0,9.74928002 0,6.28278952 C0,2.81629902 7.02287582,0 15.6862745,0 C24.3496732,0 31.372549,2.8127068 31.372549,6.28278952 Z M28.1601307,5.39215686 C28.1601307,3.30718954 22.5816993,1.63398693 15.6862745,1.63398693 C8.79084967,1.63398693 3.20261438,3.31045752 3.20261438,5.39215686 C3.20261438,7.47385621 8.80065359,9.1503268 15.6862745,9.1503268 C22.5718954,9.1503268 28.1601307,7.47712418 28.1601307,5.39215686 Z" id="Combined-Shape" fill="#0076DF"></path>
                        </g>
                    </g>
                    <g id="Group-12" transform="translate(10.784314, 27.124183)">
                        <g id="Group-558">
                            <g id="Group-554">
                                <mask id="mask-2" fill="white">
                                    <use xlink:href="#path-1"></use>
                                </mask>
                                <g id="Clip-553"></g>
                                <polygon id="Fill-552" fill="#000000" mask="url(#mask-2)" points="-13.9474482 39.0528549 53.0003031 39.0528549 53.0003031 -13.9474482 -13.9474482 -13.9474482"></polygon>
                            </g>
                            <g id="Group-557">
                                <mask id="mask-4" fill="white">
                                    <use xlink:href="#path-3"></use>
                                </mask>
                                <g id="Clip-556"></g>
                                <polygon id="Fill-555" fill="#0076DF" mask="url(#mask-4)" points="-13.9474482 44.6318342 53.0003031 44.6318342 53.0003031 -22.3159171 -13.9474482 -22.3159171"></polygon>
                            </g>
                        </g>
                    </g>
                    <path d="M4.22028186,24.8123468 L4.22028186,22.7698632 C4.59048388,23.0804924 4.99259383,23.3134609 5.42662377,23.4687755 C5.86065372,23.6240902 6.29893229,23.7017463 6.74147263,23.7017463 C7.00103956,23.7017463 7.22762533,23.6783431 7.42123672,23.6315359 C7.61484812,23.5847288 7.77654313,23.519838 7.90632659,23.4368617 C8.03611006,23.3538854 8.13291431,23.2560174 8.19674224,23.1432547 C8.26057017,23.030492 8.29248366,22.908157 8.29248366,22.7762459 C8.29248366,22.5975277 8.24142208,22.4379603 8.13929739,22.2975388 C8.03717269,22.1571174 7.89781713,22.0273358 7.72122651,21.9081904 C7.5446359,21.7890449 7.33507066,21.6741563 7.09252451,21.5635212 C6.84997836,21.4528862 6.58828776,21.3401252 6.30744485,21.2252349 C5.592572,20.9273712 5.05961675,20.5635574 4.70856311,20.1337827 C4.35750948,19.7040079 4.18198529,19.1848819 4.18198529,18.5763889 C4.18198529,18.099807 4.27772576,17.6902506 4.46920956,17.3477073 C4.66069336,17.0051641 4.92132018,16.7232616 5.25109783,16.5019914 C5.58087549,16.2807213 5.96277357,16.1179625 6.39680351,16.0137102 C6.83083346,15.9094579 7.29038769,15.8573325 7.77547998,15.8573325 C8.25206189,15.8573325 8.67438371,15.8860547 9.04245813,15.9434998 C9.41053255,16.0009449 9.7498793,16.0892389 10.0605086,16.2083844 L10.0605086,18.1168301 C9.90732154,18.0104502 9.74030762,17.9168373 9.55946181,17.8359886 C9.37861599,17.7551398 9.19245398,17.6881215 9.00097018,17.6349316 C8.80948638,17.5817416 8.61906923,17.5423817 8.42971303,17.5168505 C8.24035683,17.4913193 8.06057751,17.4785539 7.89036969,17.4785539 C7.65633393,17.4785539 7.44357735,17.5008934 7.25209355,17.5455729 C7.06060975,17.5902525 6.89891474,17.6530157 6.76700368,17.7338644 C6.63509261,17.8147131 6.53296945,17.9115173 6.46063113,18.02428 C6.3882928,18.1370427 6.35212418,18.2636329 6.35212418,18.4040543 C6.35212418,18.5572414 6.39254793,18.6944694 6.47339665,18.8157424 C6.55424537,18.9370155 6.66913392,19.0519041 6.81806577,19.1604116 C6.96699761,19.268919 7.14784071,19.3752973 7.36060049,19.4795496 C7.57336027,19.5838019 7.81377521,19.691244 8.08185253,19.8018791 C8.44779935,19.9550661 8.77650828,20.1178249 9.06798917,20.2901603 C9.35947007,20.4624958 9.60945906,20.657168 9.81796364,20.874183 C10.0264682,21.091198 10.1860357,21.3390594 10.2966708,21.6177747 C10.4073058,21.89649 10.4626225,22.2209438 10.4626225,22.5911458 C10.4626225,23.1017693 10.3658183,23.5304738 10.1722069,23.8772723 C9.97859551,24.2240707 9.71584112,24.5049094 9.38393587,24.7197968 C9.05203061,24.9346841 8.66587741,25.0889327 8.22546467,25.182547 C7.78505192,25.2761613 7.32017878,25.3229677 6.83083129,25.3229677 C6.32871821,25.3229677 5.85107968,25.2804164 5.39790135,25.1953125 C4.94472302,25.1102086 4.55218712,24.9825546 4.22028186,24.8123468 Z M15.8369077,25.3229677 C14.5263074,25.3229677 13.4582694,24.8974546 12.6327614,24.0464154 C11.8072535,23.1868659 11.3945057,22.074149 11.3945057,20.7082312 C11.3945057,19.2657199 11.8136362,18.0955587 12.6519097,17.1977124 C13.4859281,16.3041213 14.5965174,15.8573325 15.9837112,15.8573325 C17.2900562,15.8573325 18.3453289,16.2849733 19.1495609,17.1402676 C19.958048,17.9913067 20.3622855,19.1189166 20.3622855,20.5231311 C20.3622855,21.957132 19.9431551,23.1166554 19.1048815,24.0017361 C19.0750952,24.0315225 19.0474368,24.0602446 19.0219056,24.0879034 C18.9963745,24.1155622 18.9687161,24.1421567 18.9389297,24.1676879 L21.2558721,26.3952717 L18.370864,26.3952717 L17.1581393,25.1633987 C16.7581509,25.2697786 16.3177448,25.3229677 15.8369077,25.3229677 Z M15.9262663,17.6317402 C15.2071383,17.6317402 14.6326955,17.9040686 14.2029208,18.4487337 C13.7774012,18.9891435 13.5646446,19.7061332 13.5646446,20.5997243 C13.5646446,21.5060809 13.7774012,22.2230706 14.2029208,22.7507149 C14.6284403,23.2783591 15.1858626,23.5421773 15.8752042,23.5421773 C16.5858219,23.5421773 17.1496269,23.2868694 17.566636,22.7762459 C17.9836452,22.2571121 18.1921467,21.5443775 18.1921467,20.6380208 C18.1921467,19.6933674 17.9900279,18.9551021 17.5857843,18.4232026 C17.1857959,17.8955584 16.6326288,17.6317402 15.9262663,17.6317402 Z M27.332261,25.1633987 L21.8813828,25.1633987 L21.8813828,16.0105188 L23.9430147,16.0105188 L23.9430147,23.4911152 L27.332261,23.4911152 L27.332261,25.1633987 Z" id="SQL" fill="#FFFFFF"></path>
                </g>
            </g>
        </g>
    </g>
</svg>